<svg width="86" height="86" xmlns="http://www.w3.org/2000/svg" xmlns:xlink="http://www.w3.org/1999/xlink" xml:space="preserve" overflow="hidden"><defs><clipPath id="clip0"><rect x="1129" y="486" width="86" height="86"/></clipPath></defs><g clip-path="url(#clip0)" transform="translate(-1129 -486)"><path d="M1180.06 556.771C1178.54 556.771 1177.38 555.606 1177.38 554.083 1177.38 552.56 1178.54 551.396 1180.06 551.396 1181.59 551.396 1182.75 552.56 1182.75 554.083 1182.75 555.606 1181.59 556.771 1180.06 556.771ZM1171.1 556.771C1169.58 556.771 1168.42 555.606 1168.42 554.083 1168.42 552.56 1169.58 551.396 1171.1 551.396 1172.63 551.396 1173.79 552.56 1173.79 554.083 1173.79 555.606 1172.63 556.771 1171.1 556.771ZM1162.15 556.771C1160.62 556.771 1159.46 555.606 1159.46 554.083 1159.46 552.56 1160.62 551.396 1162.15 551.396 1163.67 551.396 1164.83 552.56 1164.83 554.083 1164.83 555.606 1163.67 556.771 1162.15 556.771ZM1153.19 556.771C1151.66 556.771 1150.5 555.606 1150.5 554.083 1150.5 552.56 1151.66 551.396 1153.19 551.396 1154.71 551.396 1155.88 552.56 1155.88 554.083 1155.88 555.606 1154.71 556.771 1153.19 556.771ZM1144.23 556.771C1142.71 556.771 1141.54 555.606 1141.54 554.083 1141.54 552.56 1142.71 551.396 1144.23 551.396 1145.75 551.396 1146.92 552.56 1146.92 554.083 1146.92 555.606 1145.75 556.771 1144.23 556.771ZM1180.06 547.812 1144.23 547.812C1140.74 547.812 1137.96 550.59 1137.96 554.083 1137.96 557.577 1140.74 560.354 1144.23 560.354L1180.06 560.354C1183.56 560.354 1186.33 557.577 1186.33 554.083 1186.33 550.59 1183.56 547.812 1180.06 547.812Z" stroke="#41AEBD" stroke-width="0.895833" fill="#41AEBD"/><path d="M1166.62 520.938 1179.61 520.938 1180.78 529.896 1166.62 529.896 1166.62 520.938ZM1198.61 518.071 1176.84 496.392C1176.12 495.675 1175.05 495.675 1174.33 496.392L1140.29 530.433C1140.2 530.523 1140.11 530.612 1140.02 530.702L1139.93 530.792C1139.93 530.881 1139.84 530.881 1139.84 530.971 1139.84 531.06 1139.84 531.06 1139.75 531.15 1139.75 531.24 1139.75 531.24 1139.66 531.329 1139.66 531.419 1139.66 531.598 1139.66 531.688L1139.66 542.438C1139.66 543.423 1140.47 544.229 1141.45 544.229L1182.12 544.229 1182.75 544.229 1182.75 544.14C1184.63 543.871 1186.06 542.079 1185.8 540.108L1183.2 520.4C1182.93 518.608 1181.41 517.265 1179.61 517.265L1166.62 517.265C1164.65 517.265 1163.04 518.877 1163.04 520.848L1163.04 529.806 1145.84 529.806 1175.58 500.154 1195.65 520.221 1191.71 540.198C1197.98 541.452 1204.16 537.331 1205.41 531.06 1206.4 525.596 1203.53 520.221 1198.61 518.071Z" stroke="#41AEBD" stroke-width="0.895833" fill="#41AEBD"/></g></svg>